# xmcd
#
# Track frame offsets:
#	150
#	22525
#	47741
#	69657
#	96378
#	123287
#	145750
#	170516
#	194667
#	213993
#	235842
#
# Disc length: 3470 seconds
#
# Revision: 2
# Processed by: cddbd v1.5.2PL0 Copyright (c) Steve Scherf et al.
# Submitted via: EZCDAudioConverter 8.0.2.1
#
DISCID=970d8c0b
DTITLE=Quang Lê - Sương Trắng Miền Quê Ngoại
DYEAR=2003
DGENRE=Miscellaneous
TTITLE0=Sương Trắng Miền Quê Ngoại
TTITLE1=Những ngày xưa thân ái
TTITLE2=Gặp nhau
TTITLE3=Ai nhớ chăng ai
TTITLE4=Thư cho vợ hiền
TTITLE5=Sao em vô tình
TTITLE6=Người mang tâm sự
TTITLE7=Tà áo cưới
TTITLE8=Duyên kiếp
TTITLE9=Thương về miền Trung
TTITLE10=Đa tạ
EXTD=
EXTT0=
EXTT1=
EXTT2=
EXTT3=
EXTT4=
EXTT5=
EXTT6=
EXTT7=
EXTT8=
EXTT9=
EXTT10=
PLAYORDER=
